<?xml version="1.0" encoding="UTF-8" standalone="no"?>
<!-- Created with Inkscape (http://www.inkscape.org/) -->

<svg
   xmlns:dc="http://purl.org/dc/elements/1.1/"
   xmlns:cc="http://creativecommons.org/ns#"
   xmlns:rdf="http://www.w3.org/1999/02/22-rdf-syntax-ns#"
   xmlns:svg="http://www.w3.org/2000/svg"
   xmlns="http://www.w3.org/2000/svg"
   xmlns:sodipodi="http://sodipodi.sourceforge.net/DTD/sodipodi-0.dtd"
   xmlns:inkscape="http://www.inkscape.org/namespaces/inkscape"
   width="16px"
   height="16px"
   id="svg7456"
   version="1.1"
   inkscape:version="0.48.3.1 r9886"
   sodipodi:docname="favicon.svg"
   inkscape:export-filename="/home/snake/develop/workspace/python/doc-search/static/favicon.png"
   inkscape:export-xdpi="90"
   inkscape:export-ydpi="90">
  <defs
     id="defs7458" />
  <sodipodi:namedview
     id="base"
     pagecolor="#ffffff"
     bordercolor="#666666"
     borderopacity="1.0"
     inkscape:pageopacity="0.0"
     inkscape:pageshadow="2"
     inkscape:zoom="45.5625"
     inkscape:cx="8"
     inkscape:cy="8"
     inkscape:current-layer="layer1"
     showgrid="true"
     inkscape:grid-bbox="true"
     inkscape:document-units="px"
     inkscape:window-width="1280"
     inkscape:window-height="965"
     inkscape:window-x="0"
     inkscape:window-y="27"
     inkscape:window-maximized="1">
    <inkscape:grid
       type="xygrid"
       id="grid7581"
       empspacing="8"
       visible="true"
       enabled="true"
       snapvisiblegridlinesonly="true" />
  </sodipodi:namedview>
  <metadata
     id="metadata7461">
    <rdf:RDF>
      <cc:Work
         rdf:about="">
        <dc:format>image/svg+xml</dc:format>
        <dc:type
           rdf:resource="http://purl.org/dc/dcmitype/StillImage" />
        <dc:title></dc:title>
      </cc:Work>
    </rdf:RDF>
  </metadata>
  <g
     id="layer1"
     inkscape:label="Layer 1"
     inkscape:groupmode="layer">
    <g
       id="g8104"
       transform="translate(10,-8)">
      <path
         sodipodi:nodetypes="cszzscc"
         inkscape:connector-curvature="0"
         id="path8100"
         d="m -7.5,10.5 2,0 c 0.5690356,0 0.7822395,0.47428 1,1 0.2177605,0.52572 0.2177605,1.47428 0,2 -0.2177605,0.52572 -0.4309644,1 -1,1 l -2,0 z"
         style="fill:none;stroke:#000000;stroke-width:1px;stroke-linecap:butt;stroke-linejoin:miter;stroke-opacity:1" />
      <path
         sodipodi:nodetypes="cssssssc"
         inkscape:connector-curvature="0"
         id="path8102"
         d="m -0.5,13.5 -2,0 c -0.4714045,0 -1,0.528595 -1,1 0,0.471405 0.5285955,1 1,1 l 1,0 c 0.4714045,0 1,0.528595 1,1 0,0.471405 -0.5285955,1 -1,1 l -3,0"
         style="fill:none;stroke:#000000;stroke-width:1px;stroke-linecap:butt;stroke-linejoin:miter;stroke-opacity:1" />
    </g>
    <path
       style="fill:#000000;fill-opacity:1;stroke:none"
       d="M 6 0 C 2.6862915 0 0 2.6862915 0 6 C 0 9.3137085 2.6862915 12 6 12 C 9.3137085 12 12 9.3137085 12 6 C 12 2.6862915 9.3137085 -2.9605947e-15 6 0 z M 6 1 C 8.7614237 1 11 3.2385763 11 6 C 11 8.7614237 8.7614237 11 6 11 C 3.2385763 11 1 8.7614237 1 6 C 1 3.2385763 3.2385763 1 6 1 z "
       id="path8093" />
    <path
       style="fill:#000000;fill-opacity:1;stroke:none"
       d="m 14,16 2,-2 -4,-4 C 12.25529,9.5891846 12.197711,9.2802595 12,9 L 11,8 c -0.748908,1.3766387 -1.7834026,2.324896 -3,3 l 1,1 c 0.3875069,0.276686 0.6731824,0.219427 1,0 z"
       id="path8098"
       inkscape:connector-curvature="0"
       sodipodi:nodetypes="ccccccccc" />
  </g>
</svg>
